<?xml version="1.0" standalone="no"?><!DOCTYPE svg PUBLIC "-//W3C//DTD SVG 1.1//EN" "http://www.w3.org/Graphics/SVG/1.1/DTD/svg11.dtd"><svg t="1481600129261" class="icon" style="" viewBox="0 0 1024 1024" version="1.1" xmlns="http://www.w3.org/2000/svg" p-id="1846" xmlns:xlink="http://www.w3.org/1999/xlink" width="32" height="32"><defs><style type="text/css"></style></defs><path d="M773.813403 606.700849c-88.35635 0-159.966295 71.609944-159.966295 159.967318 0 88.35635 71.609944 159.965272 159.966295 159.965272 88.357374 0 159.966295-71.609944 159.966295-159.965272C933.780721 678.310793 862.170776 606.700849 773.813403 606.700849zM837.800739 798.660812l-31.993668 0 0 31.994692c0 17.620309-14.308891 31.992645-31.993668 31.992645s-31.993668-14.372336-31.993668-31.992645l0-31.994692-31.993668 0c-17.683754 0-31.993668-14.372336-31.993668-31.992645 0-17.683754 14.308891-31.994692 31.993668-31.994692l31.993668 0 0-31.992645c0-17.683754 14.308891-31.994692 31.993668-31.994692s31.993668 14.309914 31.993668 31.994692l0 31.992645 31.993668 0c17.683754 0 31.993668 14.309914 31.993668 31.994692C869.793384 784.288476 855.484494 798.660812 837.800739 798.660812zM552.145837 798.660812 165.942915 798.660812l0-63.986313 386.201899 0c3.228531-22.593578 9.82374-44.097334 19.266809-63.986313L165.942915 670.688185 165.942915 606.700849l451.130677 0c40.387849-39.578414 95.699596-63.986313 156.73981-63.986313 10.863419 0 21.542642 0.789992 31.993668 2.285043L805.807071 158.764933 677.833421 158.764933l0 127.972627-63.986313 0L613.847108 94.77862 101.956601 94.77862l0 831.855842 515.140527 0C582.801021 893.029086 559.274188 848.490707 552.145837 798.660812zM165.942915 286.73756l319.93259 0 0 63.986313L165.942915 350.723873 165.942915 286.73756zM165.942915 478.728222l511.890506 0 0 63.986313L165.942915 542.714536 165.942915 478.728222z" p-id="1847" fill="#324057"></path></svg>
