<?xml version="1.0" standalone="no"?><!DOCTYPE svg PUBLIC "-//W3C//DTD SVG 1.1//EN" "http://www.w3.org/Graphics/SVG/1.1/DTD/svg11.dtd"><svg t="1481200014466" class="icon" style="" viewBox="0 0 1024 1024" version="1.1" xmlns="http://www.w3.org/2000/svg" p-id="1919" xmlns:xlink="http://www.w3.org/1999/xlink" width="32" height="32"><defs><style type="text/css"></style></defs><path d="M468.379415 629.879437l160.10019 0 0-160.258235 4.018874 0 0-0.383825 19.687966 0 0-0.158046 19.213829 0 93.788773 0 53.554879 0 0.88054 0 0-53.351678-0.88054 0C805.671297 229.166115 656.543987 80.061384 469.959871 66.988755L469.959871 66.108215l-53.374256 0 0 0.88054C230.024077 80.061384 80.941924 229.166115 67.846717 415.750232L66.966177 415.750232l0 53.351678 0.88054 0c13.095207 186.584116 162.17736 335.711426 348.738898 348.806632l26.506504 0.857962 0.203201 0 0.180624 0 24.926048 0L468.401993 629.879437zM725.09062 283.917626c22.668254 40.279049 36.418221 85.096265 40.279049 131.832606l-113.205803 0c-1.738502-46.894386-8.353839-91.395511-18.807426-131.832606L725.09062 283.917626zM671.738943 214.129206c5.396128 5.418706 10.476165 10.814834 15.330423 16.57221l-70.781849 0c-12.214667-32.083256-27.048375-60.508886-43.959254-84.396349C609.130308 162.17736 642.771442 185.026238 671.738943 214.129206M470.117917 125.059223c26.529082 10.97288 52.832385 37.840631 74.665256 77.239141 5.080037 8.918287 9.595626 18.491335 13.93059 28.267584l-88.753892 0L469.959871 125.059223 470.117917 125.059223zM470.117917 283.917626l107.945143 0c2.280372 7.857124 4.357543 16.030339 6.276668 24.226132 8.01517 34.363628 12.914583 70.465758 14.472461 107.629051l-128.694272 0L470.117917 283.917626zM470.117917 469.259955l128.694272 0c-1.5353 37.343917-6.434714 73.446047-14.472461 107.606474-1.399832 6.118622-2.95771 12.214667-4.696212 18.152666l-109.683644 0 0-125.759139L470.117917 469.259955zM215.009746 214.129206c29.102968-29.125546 62.586056-51.951845 99.207479-67.824139-16.865723 23.910041-31.722009 52.313093-43.914098 84.396349L199.498699 230.701416C204.556158 224.966618 209.613617 219.389866 215.009746 214.129206M161.838691 283.917626l91.73418 0c-10.476165 40.617718-17.11408 84.938219-18.852582 131.832606L121.379018 415.750232C125.217269 369.013891 138.967236 324.174097 161.838691 283.917626M158.519734 595.019094c-20.749129-38.721171-33.302465-81.258015-36.960092-125.917185l113.183225 0c1.738502 44.478547 7.834546 86.857344 17.430172 125.917185L158.519734 595.019094zM215.009746 670.858403c-7.157208-7.157208-14.15637-14.81113-20.568506-22.510209l73.581514 0c12.575914 34.544252 28.08696 65.06963 46.036425 90.334348C277.61838 722.832826 243.977246 699.983948 215.009746 670.858403M416.766239 759.950964c-26.483926-10.97288-52.832385-37.818054-74.665256-77.239141-5.915421-10.792256-11.469595-22.307007-16.527054-34.34105l91.395511 0 0 111.602769L416.766239 759.973541zM416.766239 595.019094l-109.683644 0c-1.557878-5.960577-3.138334-12.034043-4.696212-18.152666-8.01517-34.34105-12.914583-70.44318-14.495039-107.606474l128.694272 0 0 125.759139L416.766239 595.019094zM416.766239 415.930855l-128.694272 0c1.580456-37.343917 6.457292-73.423469 14.495039-107.606474 1.919125-8.195793 4.018874-16.391586 6.25409-24.24871l107.945143 0L416.766239 415.930855zM416.766239 230.54337l-88.753892 0c4.334965-9.934295 9.076333-19.349297 13.953168-28.267584 21.968338-39.39851 48.113595-66.266261 74.6201-77.239141l0 105.506725L416.766239 230.54337zM957.033823 798.152842l-159.738943 0 0 159.76152-126.752569 0 0-159.76152-159.919566 0 0-126.775147 159.716365 0 0-159.896988 126.775147 0 0 159.716365 159.919566 0L957.033823 798.152842z" p-id="1920" fill="#1F2D3D"></path></svg>
