<?xml version="1.0" standalone="no"?><!DOCTYPE svg PUBLIC "-//W3C//DTD SVG 1.1//EN" "http://www.w3.org/Graphics/SVG/1.1/DTD/svg11.dtd"><svg t="1481600278127" class="icon" style="" viewBox="0 0 1024 1024" version="1.1" xmlns="http://www.w3.org/2000/svg" p-id="3621" xmlns:xlink="http://www.w3.org/1999/xlink" width="32" height="32"><defs><style type="text/css"></style></defs><path d="M951.38875 917.423683l-38.102806 35.719526c-14.288424 14.293541-39.293935 14.293541-53.583382 0l-98.090039-88.559988c-36.910655 20.243043-79.776951 32.147164-125.021411 32.147164-134.553509 0-251.240091-107.161648-254.810407-233.380328L190.072475 663.350057l0-59.532885 198.849884 0c5.951549-21.435195 14.285355-41.678238 25.004487-59.539025L190.072475 544.278147l0-59.532885 273.863345 0-1.193175 1.193175c44.059472-38.108946 102.404298-61.918211 166.700673-61.918211 136.930649 0 256.002558 110.732987 256.002558 239.328807 0 44.059472-13.096273 85.73157-35.718503 120.264061l95.705736 88.565105C960.913685 886.46867 965.677175 904.32741 951.38875 917.423683L951.38875 917.423683 951.38875 917.423683zM629.443317 495.462349c-95.259574 0-171.457 72.630181-171.457 160.745031 0 89.303932 84.538395 167.886685 178.603771 167.886685 95.257527 0 171.464163-72.635297 171.464163-160.746054S723.512786 495.462349 629.443317 495.462349L629.443317 495.462349 629.443317 495.462349zM190.072475 245.410316l447.708741 0 0 59.532885L190.072475 304.943201 190.072475 245.410316 190.072475 245.410316 190.072475 245.410316zM636.590088 378.770649c-38.102806 10.718109-73.827449 25.006534-104.782461 46.436612L190.072475 425.207261l0-59.533908 447.708741 0 0 13.097296L636.590088 378.770649 636.590088 378.770649zM700.886463 366.865505 700.886463 184.684256 125.770983 184.684256l0 597.73771 270.297123 0c13.096273 44.058448 36.910655 84.539418 67.867714 119.070886L125.770983 901.492852c-35.720549 0-64.296375-26.198685-64.296375-59.538001L61.474608 125.146255c0-33.341363 28.575826-59.533908 64.296375-59.533908L700.886463 65.612347c35.723619 0 64.301492 26.192545 64.301492 59.533908l0 241.71925c-10.718109-1.192152-21.435195-3.575432-32.153304-3.575432C722.321658 364.481202 711.603549 366.865505 700.886463 366.865505L700.886463 366.865505 700.886463 366.865505zM700.886463 366.865505" p-id="3622" fill="#324057"></path></svg>
