<?xml version="1.0" standalone="no"?><!DOCTYPE svg PUBLIC "-//W3C//DTD SVG 1.1//EN" "http://www.w3.org/Graphics/SVG/1.1/DTD/svg11.dtd"><svg t="1481093112886" class="icon" style="" viewBox="0 0 1024 1024" version="1.1" xmlns="http://www.w3.org/2000/svg" p-id="3406" xmlns:xlink="http://www.w3.org/1999/xlink" width="32" height="32"><defs><style type="text/css"></style></defs><path d="M236.223584 552.420595c-39.419801-55.29742-62.637596-122.907261-62.637596-195.839317 0-20.469194 1.832741-40.518832 5.337565-59.995419 0.627287 0.733711 1.278109 1.463328 2.057869 2.044566 3.134387 5.155417 2.945075 14.299681 6.759961 18.6078-1.355881 0.204661-0.921999 2.341325-1.130753 3.911076 4.722558 2.018983 5.818519 8.178263 7.971555 13.240559 3.402493-0.944512 3.28686 2.322905 6.763031 1.322112 0.095167-5.704932-2.208295-4.456498-2.208295-11.901051 2.322905-0.642636 2.153036 1.851161 2.208295 4.006244 3.458775 2.946099 6.538927 6.443759 9.089006 10.576893-0.851391 9.373485 2.116197 14.130835 4.495384 19.838837 9.315156 2.77623 14.756075 9.556657 26.015513 6.592139 1.302669 3.382027 2.794649 6.440689 4.51585 9.218966 4.287653-0.964978 5.458315 1.642406 9.084912 1.322112 1.039679 3.192715 3.287883 4.985548 5.67014 6.66684 0 1.324158 0 2.62785 0 3.988848 6.479575 0.775666 7.857968 7.496741 13.56597 9.256828 1.170662-1.760087 1.092891-4.912893 3.37998-5.308913 0.414439 4.835122 2.359744 7.878434 3.417843 11.901051 0 2.681062-3.097548 1.700735-2.267647 5.347798 0.49221 6.800893-3.645017 8.046257-4.530177 13.20372-2.194992 9.256828 4.589528 14.224979 0 18.571984 1.980097 2.455935 5.629207 3.059686 7.952112 5.27105-0.982374 2.00261-3.704368 1.924839-5.704932 2.681062-0.775666 10.617825 4.212952 14.450107 10.221806 17.189498 0.394996 3.099594-2.137687 2.816139-1.192152 6.556323 4.269233 3.854794 5.799076 10.939143 12.488429 11.979846 2.133593 5.872754 5.66707 10.067286 5.66707 18.494213-1.1328 1.698688-1.11438 4.910846-2.210341 6.573719 1.454118 0.906649 2.038426 2.831488 2.210341 5.327332-3.060709 5.968945 1.436722 12.958126 0 21.195741-4.172019 2.936889-4.183276 10.722202-4.52199 18.156522l44.657082 0c-0.602727-2.010797-1.407046-3.809769-1.671059-6.27389 3.063779 0 6.028297 0 9.071609 0 0.017396-1.24741 1.413186-1.000793 2.266623-1.266853 0.642636-3.284813 0.960885-6.819313 4.513804-6.64842-0.320295-7.519254 4.326539-9.067516 6.744611-13.281491 0-3.059686 0-6.158257 0-9.256828 2.190899-2.359744 3.589758-5.570879 5.724375-7.952112 5.403057-1.89107 5.329379-1.89107 10.162454-3.910053 0.49221-8.484232 5.992481-15.84999 2.286066-25.146727 1.62501-1.131777 2.420119-3.363607 2.249227-6.631024 1.814322 0.361227 1.945305-1.282203 3.437286-1.359974 0.400113-4.363378 3.289929-5.8001 4.499477-9.217942 3.019777-3.457752-0.152473-6.347568 3.40147-7.992021-0.852414-4.00522 1.150196-4.835122 1.131777-7.895831 0.01842-4.950755-1.191128-8.407484-2.324952-11.867282-2.00261-2.52859-3.269463 0.493234-5.629207 1.287319-1.737574-4.535293-6.139837-6.065136-10.144034-7.970532-2.64627 0-5.328355 0-7.91732 0-2.039449-3.857864-9.558703-1.154289-10.221806-6.614651-3.003404 0-6.66684 0.793062-6.780427-2.663666 3.248997-6.138814-3.306302-23.046902-13.601786-17.246803-3.609201-2.379187-6.158257-5.933129-6.745634-11.863189-5.856381-1.966795-10.163477-5.838985-15.871479-7.93574-1.472538 0.452301-1.792832 2.305509-3.397377 2.644223-1.531889-4.854565-7.064906-4.987594-7.972579-10.56052-3.589758-1.170662-2.306532 3.419889-4.477988 3.947915-2.64627-0.906649-3.004427-4.380774-5.669116-5.288446-1.037632 2.343371-2.114151 4.591575-5.646604 3.911076-1.719154 5.592368-6.291287 7.687076-9.030677 11.95938 0.281409-4.307096-1.360997-6.330172-4.572132-6.612605-2.87242 1.435699-4.214998 4.759397-7.858992 5.308913-2.721994-6.405897 1.095961-12.582573 0-21.196765-2.173502-4.666276-9.691733-2.814092-13.622252-5.27105 1.113357-5.780657 4.365424-8.992815 3.40147-17.247826-5.538133 0.886183-5.820566 0.886183-11.31879 0-2.093684 2.888793-1.093914 9.371438-4.551666 10.654664-15.170514 0.850367-5.630231-22.76447-9.05012-33.136701 4.061502-1.131777 6.42534-3.984754 10.202363-5.305843 6.197142-0.64366 7.631818 4.230348 13.56597 3.964288-0.096191-1.849114-0.169869-3.739161 1.152243-3.964288 5.327332 0.319272 12.732999-1.627057 13.583366 3.964288-0.531096 7.692193 2.456958 11.280928 7.91425 11.960403-1.302669-6.80294-0.792039-8.899694 0-13.204743-1.302669-2.078335-3.229554-3.288906-3.417843-6.668886 1.886977-8.841366 6.89606-13.999852 14.678304-15.887852 1.039679-3.856841 1.039679-4.060479 0-7.916297 2.683109 0.360204 4.38282-0.246617 5.706979-1.342578-2.777253-7.253194 3.703345-5.703909 2.228761-14.547321 3.77907-1.77339 7.463995-3.700275 11.317767-5.343705 0.587378-4.213975-3.419889-2.966565-2.173502-7.916297 4.080945-4.007267 10.352789-5.480828 15.775288-7.896854 0.849344 3.589758-2.210341 2.683109-2.210341 5.270027 4.517897-2.246157 9.29469-4.100388 12.392238-7.953136-2.737344-2.075265-8.329712-0.811482-7.875365-6.609535 0.62217-3.62762 4.362354-3.743254 6.79987-5.291516 0.435928-3.26844-2.097778-2.908236-1.190105-6.53688 5.556553 4.233418 11.994172-6.554276 15.851013-4.098341-2.608407 7.122211-8.027837 10.901281-10.202363 18.58938 4.251837 0.88823 4.855588-2.286066 9.090029-1.341554 0.070608 2.020006-0.5137 5.061272 1.112334 5.288446 1.115404-3.26844 4.383844 1.814322 7.933693 0-0.566912-3.058662-2.24718-6.760984 0-9.295714-4.137227-0.412392-5.196349-4.475941-6.800893-7.969509 0.357134-8.125051 0.357134-8.919137 0-17.0974-2.174526-2.570545-2.815115-0.208754-5.703909 0 0.168846-6.308683-5.157463-6.308683-5.632277-11.997242 0.927115-1.151219 1.248434-2.947122 1.209548-5.252631-4.381797-2.851954-2.77623-12.674671-9.142218-13.258978-0.644683 1.888 1.37737 6.819313-1.11745 6.66684-2.321882-0.850367-7.441483 1.607614-7.893784-1.378393 0-4.383844 0-8.842389 0-13.224186-6.105045 3.171226-4.951779-3.137457-10.221806-3.986801-3.006474 3.664459-2.4017-1.529843-5.592368-1.358951-2.758834-0.49221-2.476401 2.473331-5.725398 1.358951 1.699712 13.20372-3.059686 20.649296-1.11438 30.43415-1.945305 0.378623-5.610788-3.683902-6.820336 0 1.134847 3.874237 3.77907 0.831948 4.571109 2.718925-3.966335 2.871397-4.022617 10.204409-5.646604 15.83464-2.551102-4.044106-3.081175-10.507308-4.513804-15.83464-2.306532-2.718925-2.26867 0.550539-4.516874 1.323135-1.039679-3.872191-1.738597-1.549286-4.572132-1.323135-3.37998-4.077875-7.236821-7.441483-12.4301-9.331529 1.812275-6.572696-3.948939-4.1536-3.38305-9.257851 2.419096 0.644683 2.136663-1.888 2.249227-3.948939 3.682879-2.245134 5.327332-7.006578 9.06854-9.274224 2.456958-4.647857 4.213975-10.107195 10.181897-10.578939 0.170892-2.381234-1.39579-2.834558-1.113357-5.253654 7.593955-1.794879 11.902074-2.964518 16.926508-5.364171-0.190335-5.0449-0.037862-9.784854 1.11438-13.20372-1.304715-1.964748-4.191462-1.984191-5.610788-3.985778 4.458545-0.436952 8.333806-0.077771 10.183943 2.662643 2.079358-4.100388 5.421476 1.493004 9.009188 0-1.547239 6.705726 5.237281 3.607154 4.573155 9.236362-1.130753 9.673313-13.487176 6.369058-14.716166 15.908318 1.873674 3.058662 6.611581 2.832512 11.31879 2.6432 7.028067 3.704368 9.767458 12.280698 19.268856 13.298887-2.475378-6.912433 1.870604-6.742565 1.075495-14.620999-0.396019-3.416819-3.399423-3.986801-3.399423-7.896854 4.2897 0.265036 5.516644 4.158716 9.069563 5.235235-0.283456-3.419889-0.361227-6.594185 3.345188-5.235235-0.776689-4.136204 1.223874-4.871961 1.223874-8.008394-3.134387 0.868787-2.24718-2.719948-3.437286-3.929496-3.872191-0.756223-6.800893-2.684132-10.200316-4.02364 0.321318-2.664689 3.116991-2.608407 3.399423-5.270027-1.39579-3.175319-4.947685-3.895727-4.549619-9.256828-3.325745 0-6.726192 0-10.127661 0 0.51063-4.177136-3.042289-3.535523-3.399423-6.574742-4.89345-0.850367-7.502881 0.907673-11.298324 1.207501 0.62217-8.121981-8.975419-5.514597-10.296507-1.207501 0.531096-5.027503-0.811482-7.783267-4.439102-8.011464-5.969968 4.176113-12.622482 17.720593-5.705955 25.201985 1.700735 0.699941 5.894244-1.549286 5.705955 1.302669-1.304715 3.816932-3.647063 6.367011-5.705955 9.236362-2.796696-3.133364 2.435469-2.830465 1.192152-7.913227-3.911076-3.004427-7.577582-6.235005-9.089006-11.901051-4.326539 0.676405-3.569292-4.630461-9.05012-2.665713 0.453325 3.213181-2.020006 2.795673-1.113357 6.613628 3.911076 1.774413 2.511193 12.261255 0 14.546298-1.661849-1.076518-2.418073-3.323699-2.266623-6.592139-5.763261-0.926092-5.649674 4.910846-10.18599 5.308913-1.004887-0.533143-2.029216-1.01512-3.046383-1.49198 10.425444-12.552897 21.742187-24.340361 33.849946-35.267225 0.540306 0.50142 0.901533 1.219781 0.901533 2.337231 8.518001-1.416256 19.909445 5.858428 22.668279-3.986801 2.908236 0.361227 4.838192-0.471744 4.437056-3.986801 0.851391-3.550873-5.270027 0.926092-4.437056-2.570545 2.588965 0 5.234211 0 7.879458 0 0-7.121188 6.838755-6.118348 5.685489-14.640442 5.838985-0.130983 6.385431-6.55223 13.564947-5.270027 1.39886-3.212158 3.685949-5.382591 7.842619-5.270027 1.490957-3.346211-2.419096-6.404873 0-6.632047 4.797259-2.568499 11.748578 1.324158 13.638625-6.612605 0-1.632173-1.725294-1.332345-2.710738-1.842974 46.90324-24.663726 100.262518-38.650275 156.831908-38.650275 91.608417 0 174.804235 36.637432 235.748259 96.003518-2.408863-0.64059-4.520967-1.843998-6.678096-2.574638-1.39886-0.469698-3.078105 0.265036-4.514827 0-2.796696-0.64059-4.966105-4.174066-11.293207-2.682086 0.48914-3.455705 3.378957-3.948939 3.378957-7.971555-1.588171-3.856841-5.273097-5.346775-6.765077-9.218966-3.417843 1.813299-8.707312 1.379417-13.620206 1.341554-2.87242-1.153266-2.361791-6.065136-6.798846-5.346775-2.553149 1.39886-3.63069 4.647857-3.385097 9.368368-5.589298-2.208295-3.589758 4.613064-7.933693 3.856841-2.174526-0.435928-0.908696-5.139044-4.495384-3.856841-2.989077 3.591805-7.02909 5.860475-13.606903 5.215792-1.998517 1.701758-2.948145 4.513804-6.762007 4.003174-1.565658 1.645476-0.529049 6.463202-3.382027 6.633071-2.38021 0.7552-7.876388-2.133593-6.817266 2.645247 0 4.837168 6.66991 1.889023 5.649674 7.916297-4.103458-1.360997-5.219885-6.1777-11.298324-5.367241-0.038886 3.571339 0.64059 7.858992-2.326998 8.029884-1.282203-1.530866-1.24434-4.742001-1.074472-8.029884-4.384867-1.058099-1.870604 5.818519-6.763031 4.043083-1.75497-2.361791-1.568728-7.028067-6.798846-5.250584-3.178389 5.497201-7.559163 9.710153-11.376095 14.546298-7.29208 0.641613-6.765077-2.492774-14.678304-2.682086-1.796926 6.499018 5.817496 2.00261 4.572132 7.953136-4.818749-1.323135-9.843182 0.601704-17.006326 0-5.152347 2.396583-7.933693 7.519254-13.617136 9.237385 0-2.645247 0-5.251607 0-7.952112-2.835581 0.169869-5.406127 0.169869-6.766101-1.285273 0.264013 7.384178 0 14.150278-6.782473 13.20372 2.984984-8.292873-6.421246-12.602016-13.582343-13.20372-1.812275-3.174296-4.874007-4.951779-9.012258-5.27105-1.566682-3.060709-3.25002-5.952572-5.745864-7.971555-3.378957 0-6.724145 0-10.158361 0-3.1569 2.530636-5.935176 5.362124-9.073656 7.971555-0.451278-2.040473-1.431605 0.530073-3.359514 0-4.043083 4.949732-9.106402 8.69094-13.602809 13.1853-1.264806 6.045693-3.515057 10.843976-6.800893 14.567787-0.172939-1.494027-2.023076-1.076518-3.40147-1.286296 0 1.720178 0 3.416819 0 5.270027-7.179516 0.454348-7.858992 8.410554-10.199293 14.603603 2.319835 3.097548 2.642177 8.370645 2.319835 14.471596 1.134847 3.588735 7.103792 1.454118 9.049097 3.985778-2.472308 3.967358-4.513804 5.385661-4.550643 9.29469 2.399653-0.641613 2.155083 1.892093 2.248204 3.966335-4.004197 0.132006-6.462179 1.984191-10.163477 2.702552-1.00284 2.286066-3.192715 3.304256-2.343371 7.875365-6.367011-2.246157-2.475378 7.615445-7.822153 6.612605 0.153496 1.590218-0.264013 2.382257-1.171686 2.608407-5.024433-0.567935-6.007831 3.625574-9.049097 5.364171-2.700505 0.756223-5.798053 1.095961-5.668093 5.291516 1.418302 1.774413 4.929266 1.321088 7.953136 1.321088-0.566912 5.968945 5.231141 4.476965 4.51585 10.577916-1.095961 1.775436-1.079588 4.875031-3.382027 5.291516-5.307889-3.13541-10.051937 1.209548-16.98279 0-1.193175 4.38282 2.530636 14.395872-2.249227 14.546298 0.753153 3.965312 3.381004 5.77861 2.249227 11.975752 5.27105-1.321088 6.856152 1.701758 10.219759 2.626827 4.230348-2.53166 4.721535-2.53166 9.049097 0 2.552126-5.423523 6.441713-9.257851 5.629207-18.568914 4.988618-1.701758 4.118807-10.1645 10.148128-10.579963 4.738931 3.362584 6.724145-0.946558 11.368932-1.340531-3.191692 5.119601-1.564635 13.430894 0 19.871583 7.124258-0.774643 2.665713-7.480368 3.402493-14.56574 2.322905 0.3776 2.25025 3.62762 3.420913 5.310959 5.421476 0.12996 8.973372 2.738367 10.143011 7.951089-0.189312 2.834558-2.870374 2.795673-5.685489 2.588965-0.113587 4.703115 3.985778 4.213975 5.685489 6.705726-0.584308-5.967922 3.080152-7.103792 5.669116-9.29469 0.548492-2.908236-2.192945-1.850138-2.266623-3.967358 2.040473-4.192485 3.815909 4.38589 5.626137 0-3.019777-7.082302-17.132192-8.198729-13.503549-18.551518 3.361561 6.045693 9.80532 8.860808 13.503549 14.567787 0.720408 1.039679 1.6465 4.061502 2.288113 5.270027 0.88823 1.698688 2.701528 3.210112 2.287089 5.270027 0 2.662643 0 5.347798 0 7.990998 1.453095 1.813299 4.909823 1.342578 7.931646 1.342578 1.854231-4.553713-2.095731-11.090593 1.058099-15.888875 1.171686 0 2.287089 0 3.365654 0-1.210571 5.176906-0.115634 4.875031-1.078565 10.580986 2.53166-0.528026 1.547239 3.776 3.378957 5.308913 4.103458 3.343141 11.661597 2.323928 14.758122 0 3.381004 1.853208-2.949168 6.876618 2.248204 6.594185 4.609994 0.961908 0.205685-8.540514 5.666046-6.594185 0 2.626827 0 5.270027 0 7.916297-3.304256 2.267647-1.056052 11.256368-5.666046 11.975752-8.274454-3.681856-18.498306-4.89038-29.435403-5.365194-3.305279 1.019213-2.702552 6.575766-5.649674 7.916297-5.175883-6.252401-15.545044-6.519484-20.324908-13.205766 0.809435-4.571109-1.304715-5.554506-2.324952-7.954159 2.625804-0.35918 2.625804-3.532453 1.155313-5.26798-6.880711-0.11461-12.357446 1.454118-17.021675 3.985778-9.162684-0.641613-17.174148 0.130983-21.482267 5.270027-1.020236-2.814092-3.307326-4.02364-6.763031-3.986801-0.963954 4.592598-5.062296 5.668093-7.955182 7.954159-3.057639 6.236028-1.923816 14.355963-4.456498 19.911492-1.683339 3.400446-7.729032 6.992251-10.241248 10.5421-0.149403 7.726985-2.758834 12.58155-5.609765 17.172101 0 11.466146 0 22.916942 0 34.516118 3.853771 5.100158 7.237845 10.842952 8.993838 18.457374 5.234211 3.606131 8.673543 9.257851 15.848966 10.616802 4.516874-1.325182 9.939373-1.644453 15.889899-1.325182 2.2656-2.170432 2.172479-7.196912 6.725168-6.704702 2.13564 0.264013 0.680499 4.53427 2.287089 5.363148 5.326309-0.942465 7.27366 2.060939 11.314697 2.665713 2.022053-1.227967 2.850931-3.741207 6.819313-2.665713 1.153266 10.145058-2.472308 14.812357-2.302439 23.825638 3.269463 6.759961 8.746198 11.900028 6.800893 21.155832 3.043313 4.459568 3.231601 12.186554 4.535293 18.568914-2.815115 5.934153-2.173502 15.948227-4.535293 22.446221 4.855588 5.365194 8.371668 12.277628 10.201339 21.23258 0 3.910053 0 7.898901 0 11.864212 5.02648 6.877641 4.951779 19.799952 10.1645 26.449395 10.94119-0.829901 16.383132-8.160867 26.110681-10.577916 1.681292-7.217379 5.136997-12.431124 10.089799-15.871479-0.587378-5.062296 2.133593-6.384407 1.170662-11.864212 2.040473-1.246387 2.88777-3.699252 6.759961-2.718925 0.152473-15.285125 4.818749-25.278733 13.586436-30.378891 1.700735-10.80509 1.700735-26.334785 0-37.065174 2.456958-5.120624 4.381797-10.786671 5.688559-17.267269 2.717901-2.153036 4.947685-4.666276 7.876388-6.593162 5.425569-9.086959 10.334369-18.777669 15.923668-27.78788 0.794086-4.912893 2.341325-11.637038-1.207501-14.603603-4.838192-0.737804-4.609994 4.383844-9.051143 4.098341-3.323699 0-6.762007 0-10.125615 0-0.530073-9.086959-6.214539-12.299117-10.18292-17.302061 1.001817-8.671497-6.762007-7.067976-4.549619-17.231453-1.968841-2.945075-5.478781-4.193509-6.785543-7.895831 1.001817-4.00522-1.603521-10.371208 0-10.578939 2.737344 2.267647 5.631254 9.255805 4.53427 11.93789 4.724605 5.480828 7.879458 12.81077 12.415774 18.515702 2.64013 5.477758 2.303462 13.752212 7.931646 18.457374 7.934716-3.003404 13.471826-8.937556 22.691815-10.541077 1.529843-0.812505 0.132006-5.101181 2.246157-5.27105 4.818749-0.944512 6.931876-5.13802 11.279904-6.593162-0.738827-5.8001 3.284813-5.912663 3.438309-10.654664-1.985214-4.743024-7.786337-5.064342-6.859221-13.243629-4.308119-0.641613-7.161097 0.379647-9.04705 2.664689-0.927115-5.062296-5.084808-6.330172-4.520967-13.244652-3.701299 0.339738-3.245927-4.114714-5.627161-5.288446 1.661849-0.719384 2.814092-1.927909 4.516874-2.62478 6.307659 4.553713 4.38282 18.627243 15.830547 17.247826 0.471744 2.530636 3.212158 2.38021 2.26867 6.573719 5.459339 0.641613 6.271844-4.082992 11.254322-3.947915 1.195222 0.812505 1.195222 3.041266 3.499707 2.62478 7.837502-1.340531 9.80532 4.421706 14.678304 6.611581-1.943258-0.414439-2.171456 1.059122-2.303462 2.626827 1.207501 2.588965 5.270027 1.888 6.840802 3.984754-0.548492 4.177136 2.040473 4.705162 1.12973 9.254781 3.368724 4.423753 4.877077 10.999518 6.766101 17.250896 2.323928 2.494821 4.742001 5.101181 5.665023 9.236362 0 2.62785 0 5.29254 0 7.937786 1.496074 1.774413 4.934382 1.321088 7.918343 1.359974 1.474584-8.445346 5.628184-13.793144 4.513804-25.201985 1.51347 0 3.022847 0 4.551666 0 0-1.700735 0-3.477194 0-5.213745 4.2897 1.888 2.156106-3.722788 5.649674-2.682086-0.264013-6.083555 4.119831-6.728238 5.647627-10.5421 2.817162-2.570545 5.991458-4.53427 10.205433-5.383614 2.551102 3.664459 2.551102 10.218736 6.856152 11.95938 0.396019 3.174296-2.155083 2.869351-1.209548 6.649444 1.24741 4.231371 9.030677 0.944512 11.356652 3.910053-1.552356 2.814092 0.50756 3.910053-1.157359 7.971555 2.951215 1.360997 5.030573 3.741207 5.632277 7.916297-0.412392 2.53166-3.229554 2.379187-2.24718 6.612605 0.35918 4.078899 3.493567 4.722558 2.24718 10.615779 5.477758 5.53711 10.543124 11.410887 17.021675 15.870456 0.303922-8.727779-5.364171-10.468422-5.703909-18.532075-3.119037-2.53166-6.161327-5.157463-7.898901-9.256828 0.509606-4.328585-1.530866-11.43033 2.248204-11.977799 2.456958 3.853771 4.234441 8.40646 9.06854 9.31311 0.886183 1.209548 1.191128 2.984984 1.11438 5.291516 11.016915-1.699712 13.622252-13.152555 12.431124-29.094642 3.176342-0.7552 3.209088-5.13802 4.590552-7.953136-1.020236-1.039679-2.588965-1.378393-4.590552-1.304715 0.812505-5.665023 6.577812-5.628184 12.506848-5.364171 3.570315-6.365988 8.408507-11.278881 10.147104-19.833721 1.851161 0.357134 1.981121-1.210571 3.417843-1.286296 1.851161-5.402033-0.24764-15.303544 3.400446-18.511609-2.38021-1.211595-3.436262-3.930519-3.400446-7.975649-1.928932-1.697665-4.475941-2.681062-4.514827-6.649444-0.454348-3.191692 2.059915-2.910283 1.096984-6.53688 2.287089 0.3776 3.586688-0.358157 3.417843-2.681062 3.214205-1.737574-5.117554-7.898901 2.322905-7.898901 1.24741 4.119831 5.196349 5.28947 6.727215 9.222035-1.059122 6.951319 2.078335 8.881274 5.630231 10.579963 6.875594-5.743818-0.248663-20.34742 3.397377-30.453592 2.441609-2.457981 5.842055-3.741207 9.071609-5.290493 2.718925-6.235005 4.928243-12.770861 9.067516-17.190521 0.924045-6.384407-0.183172-12.914124-0.654916-18.741853 1.540076 3.521197 3.038196 7.064906 4.459568 10.647501 0.469698 3.992941 1.451048 7.361665 3.557012 9.393951 0.624217 1.722224 1.234107 3.451612 1.830695 5.186116-1.418302-0.540306-2.929726-0.980327-4.657067-1.179872 0.829901 6.236028-1.269923 9.125845-1.173732 14.56574 3.099594 3.589758 2.852978-3.514033 6.818289-2.681062 2.098801 0.188288 0.760317 4.38282 3.439332 3.965312 0.061398-0.091074 0.100284-0.198521 0.150426-0.296759 8.902764 30.237675 13.704117 62.21497 13.704117 95.296413 0 22.880103-2.296299 45.233204-6.64842 66.850547-1.469468-1.197268-3.03001-2.311649-4.996804-3.009544-2.623757 0-5.2864 0-7.933693 0-0.924045 1.928932-1.681292 4.212952-4.53427 3.929496-3.437286 0.981351-2.13257-3.589758-5.649674-2.64627 0.36225 3.496637-4.343935 1.116427-3.323699 5.331425 0.169869 2.981914 2.814092-1.759063 5.610788 0 5.043876 4.719488 11.656481 7.573489 15.829524 13.20372 0 1.473561 0 2.925632 0 4.372587-1.639337 6.072299-3.437286 12.078083-5.40101 18.010189-4.942569-2.581802-14.245446-0.160659-19.49603-2.509147-1.929955 0.812505 0.038886 6.27082-2.228761 6.631024-4.214998 0.849344-8.030907 2.094708-11.30037 3.946892-1.471514 4.101411-0.473791 11.090593-4.571109 11.979846-2.704598-3.136433-5.571902 0.130983-9.05012 0-2.188852 0.924045 0.284479 7.365758-2.304486 7.876388-2.324952-0.720408-2.171456-3.968381-4.497431-1.248434-2.814092 3.267417-1.527796 11.468193-5.649674 13.20679-2.51017 1.849114-7.517207 0.924045-9.028631 3.9121 1.152243 5.966898 3.927449 13.298887 1.152243 19.927865 2.171456 0.849344 2.987031 3.495614 3.362584 6.556323 0.602727 6.082532-2.095731 8.252964-1.1328 14.603603 3.288906-0.322341 3.458775 2.965541 6.782473 2.586918 4.701069-2.341325 7.520277-7.065929 15.869433-5.215792 1.041726-1.6465 2.537799-2.828418 4.208858-3.751441-2.496867 3.818979-5.076622 7.580652-7.721869 11.292184l20.258393 0c37.299511-56.154951 59.051931-123.494639 59.051931-195.829084 0-195.512882-159.112857-354.638019-354.705558-354.638019-195.571211 0-354.718861 159.125137-354.718861 354.638019 0 72.335469 21.757536 139.674133 59.062164 195.829084L236.223584 552.422641zM830.041008 470.194872c0.008186-0.243547 0.030699-0.508583 0.075725-0.804319-0.12689-1.215688 0.287549-1.763157 0.930185-2.047636C830.717414 468.295616 830.380746 469.246267 830.041008 470.194872zM811.2572 200.198601c1.285273 2.450818 2.539846 4.91801 3.76679 7.402597-2.784416 1.6158-5.866614 4.066619-7.557116-1.599428C808.183188 203.369827 809.766242 201.853287 811.2572 200.198601zM293.911448 98.273211c2.388397 0.408299 4.365424 1.636267 5.863545 4.466732-3.806699 0.960885-7.068999 0.172939-10.027377-0.913812C291.122939 100.627838 292.516682 99.450013 293.911448 98.273211z" p-id="3407" fill="#b0c4de"></path><path d="M155.378302 552.420595l0 174.98536 707.104583 0 0-174.98536L155.378302 552.420595zM447.406354 687.211511c-10.428513 11.856026-24.806989 17.786085-43.132356 17.786085l-42.497906 0L361.776092 581.455885l37.705763 0c15.371082 0 26.825972 2.128477 34.361599 6.382361 7.53358 4.252861 14.285355 10.983145 20.253276 20.182668 5.967922 9.200546 8.952906 20.831444 8.952906 34.890648C463.049636 660.589177 457.833845 675.355485 447.406354 687.211511zM576.994782 704.996572l-24.694425 0-48.344055-83.445504c0.059352 2.111081 0.12075 3.499707 0.181125 4.163833 0.240477 2.111081 0.36225 3.888564 0.36225 5.336542l0 73.945129-22.535249 0L481.964428 581.455885l31.190373 0 42.025139 72.859401c-0.36225-3.621481-0.542352-6.370081-0.542352-8.240685l0-64.618717 22.357194 0L576.994782 704.996572zM677.600107 694.679599c-8.592702 8.144494-21.324678 12.215206-38.204114 12.215206-12.659321 0-23.434735-2.880607-32.326243-8.642844-8.891508-5.761214-14.755052-14.31196-17.585517-25.65531l26.789133-6.067182c3.010567 11.528568 11.378142 17.289782 25.107841 17.289782 6.623861 0 11.559267-1.284249 14.812357-3.848655s4.877077-5.625114 4.877077-9.18622c0-3.619434-1.475608-6.427386-4.425799-8.41874-2.954285-1.991354-8.647961-3.861958-17.080004-5.611811-15.72617-3.2623-26.934442-7.711636-33.623795-13.356193-6.686283-5.63944-10.032494-13.888312-10.032494-24.74866 0-10.981099 3.992941-20.239973 11.979846-27.78174 7.985882-7.541767 18.824741-11.310603 32.504298-11.310603 24.231891 0 39.812751 9.6815 46.744627 29.048593l-24.617677 8.239662c-3.309372-9.774621-10.32209-14.660908-21.036106-14.660908-11.438517 0-17.156752 3.707438-17.156752 11.128455 0 2.957355 1.069355 5.462408 3.208065 7.515161 2.140757 2.051729 6.973832 3.833305 14.506389 5.342682 12.590759 2.541893 21.810748 5.111414 27.658943 7.703449 5.840008 2.594081 10.766205 6.771217 14.775518 12.530384 4.006244 5.765307 6.011924 12.201903 6.011924 19.318998C690.486602 676.885328 686.188716 686.536129 677.600107 694.679599z" p-id="3408" fill="#b0c4de"></path><path d="M418.009837 608.020914c-4.335748-2.565429-9.54233-3.845585-15.624862-3.845585l-12.192693 0 0 77.558423 11.920494 0c10.535961 0 18.36323-3.935636 23.481807-11.808954 5.117554-7.873318 7.677866-17.118889 7.677866-27.737738 0-7.482415-1.461281-14.403035-4.380774-20.772093C425.972183 615.048981 422.345586 610.587366 418.009837 608.020914z" p-id="3409" fill="#b0c4de"></path><path d="M300.286646 1016.510422l0-201.028503 56.908104 0c14.0766 0 24.772196 1.234107 32.087812 3.702322 9.598612 3.201925 17.916045 9.051143 24.957415 17.552771 7.0383 8.501628 12.523221 19.22076 16.455787 32.156374 3.929496 12.93766 5.89629 28.271904 5.89629 46.0058 0 22.763446-3.338025 42.076304-10.009981 57.935504-6.674003 15.862269-15.244192 27.106358-25.711592 33.734312-10.468422 6.628978-24.157189 9.94142-41.069371 9.94142L300.286646 1016.510422zM322.089208 992.788138l35.104519 0c14.168698 0 24.910343-2.307555 32.224935-6.925736 7.312546-4.615111 12.935614-12.043291 16.867156-22.282492 5.210675-13.621229 7.816013-29.938869 7.816013-48.953945 0-20.385283-2.765997-36.407188-8.295943-48.063669-5.531993-11.656481-12.639878-19.448958-21.322631-23.3805-5.851265-2.650363-15.131629-3.976568-27.836999-3.976568l-34.556027 0L322.090231 992.788138z" p-id="3410" fill="#b0c4de"></path><path d="M466.346729 1016.510422l0-201.028503 22.352077 0 86.663802 158.146856L575.362608 815.481919l20.842701 0 0 201.028503-22.352077 0-86.526679-158.175509 0 158.175509L466.346729 1016.510422z" p-id="3411" fill="#b0c4de"></path><path d="M625.82593 951.786305l20.569478-2.193968c1.095961 11.06194 3.586688 19.677155 7.473205 25.848715 3.88447 6.170536 9.438976 11.130502 16.660448 14.877849 7.221472 3.749394 15.358803 5.622044 24.409946 5.622044 12.979616 0 23.058159-3.169179 30.236652-9.508561 7.175423-6.340405 10.764158-14.573927 10.764158-24.700565 0-5.929036-1.301645-11.105942-3.906983-15.529695-2.606361-4.424776-6.537903-8.052396-11.792581-10.880815-5.258771-2.828418-16.616446-6.826476-34.076096-11.994172-15.542998-4.613064-26.602891-9.251711-33.18582-13.914918-6.581905-4.662183-11.703553-10.579963-15.357779-17.758456-3.657296-7.175423-5.484921-15.289218-5.484921-24.339338 0-16.270569 5.255701-29.572526 15.769149-39.903825 10.511401-10.330276 24.683169-15.495926 42.509163-15.495926 12.249999 0 22.969131 2.423189 32.156374 7.267521 9.188266 4.846378 16.318664 11.792581 21.392216 20.843724 5.073552 9.05012 7.792477 19.701714 8.15882 31.950689l-20.979824 1.919722c-1.096984-13.071713-5.006014-22.762423-11.725042-29.070082-6.718005-6.308683-16.159028-9.462512-28.316929-9.462512-12.341073 0-21.75856 2.765997-28.247344 8.295943-6.491855 5.529947-9.736758 12.682857-9.736758 21.456684 0 8.137331 2.376117 14.442944 7.133468 18.920932 4.753257 4.480035 15.446807 9.016351 32.077579 13.605879 16.262382 4.501524 27.684526 8.405437 34.264385 11.70867 10.04989 5.142114 17.641799 11.891841 22.771633 20.24816 5.129834 8.355295 7.696286 18.331507 7.696286 29.92966 0 11.506055-2.697435 21.98471-8.090259 31.43699-5.393847 9.450233-12.730952 16.642029-22.00927 21.573341-9.278317 4.930289-20.454868 7.396457-33.527604 7.396457-20.387329 0-36.636409-6.122441-48.749284-18.374486C632.566448 989.314013 626.281301 972.722126 625.82593 951.786305z" p-id="3412" fill="#b0c4de"></path></svg>
