<?xml version="1.0" standalone="no"?><!DOCTYPE svg PUBLIC "-//W3C//DTD SVG 1.1//EN" "http://www.w3.org/Graphics/SVG/1.1/DTD/svg11.dtd"><svg t="1481600244448" class="icon" style="" viewBox="0 0 1024 1024" version="1.1" xmlns="http://www.w3.org/2000/svg" p-id="2748" xmlns:xlink="http://www.w3.org/1999/xlink" width="32" height="32"><defs><style type="text/css"></style></defs><path d="M60.247708 30.108804 60.247708 993.891164 60.247708 30.108804Z" p-id="2749" fill="#324057"></path><path d="M90.356497 30.108804 90.356497 993.891164 90.356497 30.108804Z" p-id="2750" fill="#324057"></path><path d="M120.465287 30.108804 120.465287 993.891164 120.465287 30.108804Z" p-id="2751" fill="#324057"></path><path d="M150.574077 30.108804 150.574077 993.891164 150.574077 30.108804Z" p-id="2752" fill="#324057"></path><path d="M180.682867 30.108804 180.682867 993.891164 180.682867 30.108804Z" p-id="2753" fill="#324057"></path><path d="M210.851874 30.108804 210.851874 993.891164 210.851874 30.108804Z" p-id="2754" fill="#324057"></path><path d="M240.960664 30.108804 240.960664 993.891164 240.960664 30.108804Z" p-id="2755" fill="#324057"></path><path d="M271.069453 30.108804 271.069453 993.891164 271.069453 30.108804Z" p-id="2756" fill="#324057"></path><path d="M301.178243 30.108804 301.178243 993.891164 301.178243 30.108804Z" p-id="2757" fill="#324057"></path><path d="M331.287033 30.108804 331.287033 993.891164 331.287033 30.108804Z" p-id="2758" fill="#324057"></path><path d="M361.395823 30.108804 361.395823 993.891164 361.395823 30.108804Z" p-id="2759" fill="#324057"></path><path d="M391.56483 30.108804 391.56483 993.891164 391.56483 30.108804Z" p-id="2760" fill="#324057"></path><path d="M421.67362 30.108804 421.67362 993.891164 421.67362 30.108804Z" p-id="2761" fill="#324057"></path><path d="M451.78241 30.108804 451.78241 993.891164 451.78241 30.108804Z" p-id="2762" fill="#324057"></path><path d="M481.891199 30.108804 481.891199 993.891164 481.891199 30.108804Z" p-id="2763" fill="#324057"></path><path d="M511.999989 30.108804 511.999989 993.891164 511.999989 30.108804Z" p-id="2764" fill="#324057"></path><path d="M542.108779 30.108804 542.108779 993.891164 542.108779 30.108804Z" p-id="2765" fill="#324057"></path><path d="M572.217569 30.108804 572.217569 993.891164 572.217569 30.108804Z" p-id="2766" fill="#324057"></path><path d="M602.326358 30.108804 602.326358 993.891164 602.326358 30.108804Z" p-id="2767" fill="#324057"></path><path d="M632.435148 30.108804 632.435148 993.891164 632.435148 30.108804Z" p-id="2768" fill="#324057"></path><path d="M662.604156 30.108804 662.604156 993.891164 662.604156 30.108804Z" p-id="2769" fill="#324057"></path><path d="M692.712945 30.108804 692.712945 993.891164 692.712945 30.108804Z" p-id="2770" fill="#324057"></path><path d="M722.821735 30.108804 722.821735 993.891164 722.821735 30.108804Z" p-id="2771" fill="#324057"></path><path d="M752.930525 30.108804 752.930525 993.891164 752.930525 30.108804Z" p-id="2772" fill="#324057"></path><path d="M783.039315 30.108804 783.039315 993.891164 783.039315 30.108804Z" p-id="2773" fill="#324057"></path><path d="M813.148104 30.108804 813.148104 993.891164 813.148104 30.108804Z" p-id="2774" fill="#324057"></path><path d="M843.317112 30.108804 843.317112 993.891164 843.317112 30.108804Z" p-id="2775" fill="#324057"></path><path d="M873.425901 30.108804 873.425901 993.891164 873.425901 30.108804Z" p-id="2776" fill="#324057"></path><path d="M903.534691 30.108804 903.534691 993.891164 903.534691 30.108804Z" p-id="2777" fill="#324057"></path><path d="M933.643481 30.108804 933.643481 993.891164 933.643481 30.108804Z" p-id="2778" fill="#324057"></path><path d="M963.752271 30.108804 963.752271 993.891164 963.752271 30.108804Z" p-id="2779" fill="#324057"></path><path d="M30.138918 60.277811 993.861061 60.277811 30.138918 60.277811Z" p-id="2780" fill="#324057"></path><path d="M30.138918 90.326383 993.861061 90.326383 30.138918 90.326383Z" p-id="2781" fill="#324057"></path><path d="M30.138918 120.49539 993.861061 120.49539 30.138918 120.49539Z" p-id="2782" fill="#324057"></path><path d="M30.138918 150.60418 993.861061 150.60418 30.138918 150.60418Z" p-id="2783" fill="#324057"></path><path d="M30.138918 180.71297 993.861061 180.71297 30.138918 180.71297Z" p-id="2784" fill="#324057"></path><path d="M30.138918 210.82176 993.861061 210.82176 30.138918 210.82176Z" p-id="2785" fill="#324057"></path><path d="M30.138918 240.93055 993.861061 240.93055 30.138918 240.93055Z" p-id="2786" fill="#324057"></path><path d="M30.138918 271.039339 993.861061 271.039339 30.138918 271.039339Z" p-id="2787" fill="#324057"></path><path d="M30.138918 301.208347 993.861061 301.208347 30.138918 301.208347Z" p-id="2788" fill="#324057"></path><path d="M30.138918 331.317136 993.861061 331.317136 30.138918 331.317136Z" p-id="2789" fill="#324057"></path><path d="M30.138918 361.425926 993.861061 361.425926 30.138918 361.425926Z" p-id="2790" fill="#324057"></path><path d="M30.138918 391.534716 993.861061 391.534716 30.138918 391.534716Z" p-id="2791" fill="#324057"></path><path d="M30.138918 421.643506 993.861061 421.643506 30.138918 421.643506Z" p-id="2792" fill="#324057"></path><path d="M30.138918 451.752295 993.861061 451.752295 30.138918 451.752295Z" p-id="2793" fill="#324057"></path><path d="M30.138918 481.861085 993.861061 481.861085 30.138918 481.861085Z" p-id="2794" fill="#324057"></path><path d="M30.138918 511.969875 993.861061 511.969875 30.138918 511.969875Z" p-id="2795" fill="#324057"></path><path d="M30.138918 542.138882 993.861061 542.138882 30.138918 542.138882Z" p-id="2796" fill="#324057"></path><path d="M30.138918 572.247672 993.861061 572.247672 30.138918 572.247672Z" p-id="2797" fill="#324057"></path><path d="M30.138918 602.356462 993.861061 602.356462 30.138918 602.356462Z" p-id="2798" fill="#324057"></path><path d="M30.138918 632.465252 993.861061 632.465252 30.138918 632.465252Z" p-id="2799" fill="#324057"></path><path d="M30.138918 662.574041 993.861061 662.574041 30.138918 662.574041Z" p-id="2800" fill="#324057"></path><path d="M30.138918 692.682831 993.861061 692.682831 30.138918 692.682831Z" p-id="2801" fill="#324057"></path><path d="M30.138918 722.791621 993.861061 722.791621 30.138918 722.791621Z" p-id="2802" fill="#324057"></path><path d="M30.138918 752.960628 993.861061 752.960628 30.138918 752.960628Z" p-id="2803" fill="#324057"></path><path d="M30.138918 783.069418 993.861061 783.069418 30.138918 783.069418Z" p-id="2804" fill="#324057"></path><path d="M30.138918 813.178208 993.861061 813.178208 30.138918 813.178208Z" p-id="2805" fill="#324057"></path><path d="M30.138918 843.286997 993.861061 843.286997 30.138918 843.286997Z" p-id="2806" fill="#324057"></path><path d="M30.138918 873.395787 993.861061 873.395787 30.138918 873.395787Z" p-id="2807" fill="#324057"></path><path d="M30.138918 903.504577 993.861061 903.504577 30.138918 903.504577Z" p-id="2808" fill="#324057"></path><path d="M30.138918 933.673584 993.861061 933.673584 30.138918 933.673584Z" p-id="2809" fill="#324057"></path><path d="M30.138918 963.722157 993.861061 963.722157 30.138918 963.722157Z" p-id="2810" fill="#324057"></path><path d="M933.643481 993.891164 90.356497 993.891164c-33.240104 0-60.21758-26.917258-60.21758-60.21758L30.138918 90.326383c0-33.300321 26.977476-60.21758 60.21758-60.21758L692.712945 30.108804l-60.21758 60.21758L90.356497 90.326383l0 843.286984 843.286984 0 0-542.078651 60.21758-60.21758 0 602.356448C993.861061 966.913688 966.883585 993.891164 933.643481 993.891164zM271.069453 752.960628l0-180.712956L813.148104 30.108804l60.21758 0 120.435159 120.435159 0 60.21758-542.078651 542.078651L271.069453 752.840193zM542.108779 542.138882l331.256905-331.256905-60.21758-60.21758-331.256905 331.256905L542.108779 542.138882zM391.56483 572.247672l-60.21758 60.21758 0 60.21758 60.21758 0 60.21758-60.21758L391.56483 572.247672z" p-id="2811" fill="#324057"></path></svg>
