<?xml version="1.0" standalone="no"?><!DOCTYPE svg PUBLIC "-//W3C//DTD SVG 1.1//EN" "http://www.w3.org/Graphics/SVG/1.1/DTD/svg11.dtd"><svg t="1481257582117" class="icon" style="" viewBox="0 0 1024 1024" version="1.1" xmlns="http://www.w3.org/2000/svg" p-id="3757" xmlns:xlink="http://www.w3.org/1999/xlink" width="32" height="32"><defs><style type="text/css"></style></defs><path d="M224.655619 871.563192c0 26.367531-6.385431 46.142923-19.157315 59.3272s-33.577746 19.775392-62.416561 19.775393-49.233308-6.592139-61.181431-19.775393c-11.948123-13.184277-17.922185-32.547277-17.922185-58.091046v-729.228463c0-52.735062 26.367531-79.102592 79.102592-79.102593 26.367531 0 46.555315 5.767354 60.563354 17.304108 14.008039 11.535731 21.011546 31.723515 21.011546 60.563354V871.563192z m137.193639-713.160509c0-17.304108 1.441838-31.311123 4.325516-42.023092 2.883677-10.711969 8.445346-18.951631 16.68603-24.720008 8.239662-5.768377 19.981077-9.6815 35.22527-11.741416 15.244192-2.059915 35.225269-3.090385 59.945277-3.090384h174.273139c54.383608 0 100.319823 4.532223 137.811715 13.595646s68.184939 24.307615 92.080162 45.731554 41.199331 49.644677 51.9113 84.664262c10.711969 35.019585 16.067954 78.072123 16.067954 129.159661 0 51.087539-5.767354 94.758154-17.304108 131.013893-11.535731 36.255739-29.251208 65.919339-53.147454 88.9908s-54.589292 39.963177-92.080162 50.675146c-37.491892 10.711969-82.604346 16.067954-135.339407 16.067954H522.526751v249.668293c0 16.479323-6.179746 31.311123-18.539239 44.4954-12.359492 13.184277-32.959669 19.775392-61.799507 19.775393s-49.438992-7.003508-61.799508-21.011547c-12.359492-14.008039-18.539238-28.427446-18.539239-43.259246V158.402683z m160.677493 339.895247h129.777739c52.735062 0 88.784092-11.535731 108.148115-34.607192s29.045523-60.562331 29.045523-112.474655c0-27.191292-3.501754-49.438992-10.505261-66.7431-7.003508-17.304108-16.686031-31.105439-29.045523-41.405015-12.359492-10.299577-26.779923-17.304108-43.259247-21.011546-16.479323-3.708462-34.607192-5.561669-54.383607-5.561669H522.526751v281.803177z" fill="" p-id="3758"></path><path d="M492.145813 885.86799l382.867968-382.867968 104.715946 104.715947L596.86176 990.583936 492.145813 885.86799z" fill="#FFFFFF" p-id="3759"></path><path d="M596.86176 503.000022l382.867967 382.867968L875.013781 990.583936 492.145813 607.715969l104.715947-104.715947z" fill="#FFFFFF" p-id="3760"></path><path d="M541.230742 885.86799l333.783039-333.78304 55.629995 55.629995-333.782016 333.784063-55.631018-55.631018z" fill="" p-id="3761"></path><path d="M596.86176 552.085974L930.644799 885.869013l-55.629995 55.629995L541.230742 607.715969l55.631018-55.629995z" fill="" p-id="3762"></path></svg>